<mxfile host="app.diagrams.net" modified="2022-03-08T18:10:51.291Z" agent="5.0 (Windows NT 10.0; Win64; x64) AppleWebKit/537.36 (KHTML, like Gecko) Chrome/98.0.4758.102 Safari/537.36" etag="jgTic1iln3a9RrzV76w-" version="16.6.6" type="github">
  <diagram id="CcbPzx8KftqBBxYB8IHQ" name="Page-1">
    <mxGraphModel dx="1043" dy="595" grid="1" gridSize="10" guides="1" tooltips="1" connect="1" arrows="1" fold="1" page="1" pageScale="1" pageWidth="3300" pageHeight="4681" math="0" shadow="0">
      <root>
        <mxCell id="0" />
        <mxCell id="1" parent="0" />
        <mxCell id="bpMDO7bWZP6SxXzUYjve-1" value="" style="endArrow=none;html=1;rounded=0;" edge="1" parent="1">
          <mxGeometry width="50" height="50" relative="1" as="geometry">
            <mxPoint x="400" y="280" as="sourcePoint" />
            <mxPoint x="240" y="120" as="targetPoint" />
          </mxGeometry>
        </mxCell>
        <mxCell id="bpMDO7bWZP6SxXzUYjve-2" value="" style="endArrow=oval;html=1;rounded=0;startArrow=oval;startFill=1;endFill=1;" edge="1" parent="1">
          <mxGeometry width="50" height="50" relative="1" as="geometry">
            <mxPoint x="560" y="120" as="sourcePoint" />
            <mxPoint x="400" y="280" as="targetPoint" />
          </mxGeometry>
        </mxCell>
        <mxCell id="bpMDO7bWZP6SxXzUYjve-3" value="" style="endArrow=none;html=1;rounded=0;" edge="1" parent="1">
          <mxGeometry width="50" height="50" relative="1" as="geometry">
            <mxPoint x="240" y="280" as="sourcePoint" />
            <mxPoint x="240" y="120" as="targetPoint" />
          </mxGeometry>
        </mxCell>
        <mxCell id="bpMDO7bWZP6SxXzUYjve-4" value="" style="endArrow=none;html=1;rounded=0;" edge="1" parent="1">
          <mxGeometry width="50" height="50" relative="1" as="geometry">
            <mxPoint x="560" y="280" as="sourcePoint" />
            <mxPoint x="560" y="120" as="targetPoint" />
          </mxGeometry>
        </mxCell>
        <mxCell id="bpMDO7bWZP6SxXzUYjve-5" value="" style="endArrow=none;html=1;rounded=0;" edge="1" parent="1">
          <mxGeometry width="50" height="50" relative="1" as="geometry">
            <mxPoint x="400" y="280" as="sourcePoint" />
            <mxPoint x="400" y="120" as="targetPoint" />
          </mxGeometry>
        </mxCell>
        <mxCell id="bpMDO7bWZP6SxXzUYjve-9" value="" style="endArrow=oval;html=1;rounded=0;endFill=1;startArrow=oval;startFill=1;" edge="1" parent="1">
          <mxGeometry width="50" height="50" relative="1" as="geometry">
            <mxPoint x="560" y="280" as="sourcePoint" />
            <mxPoint x="400" y="120" as="targetPoint" />
          </mxGeometry>
        </mxCell>
        <mxCell id="bpMDO7bWZP6SxXzUYjve-10" value="" style="endArrow=none;html=1;rounded=0;" edge="1" parent="1">
          <mxGeometry width="50" height="50" relative="1" as="geometry">
            <mxPoint x="240" y="280" as="sourcePoint" />
            <mxPoint x="400" y="120" as="targetPoint" />
          </mxGeometry>
        </mxCell>
        <mxCell id="bpMDO7bWZP6SxXzUYjve-11" value="" style="endArrow=oval;html=1;rounded=0;startArrow=oval;startFill=1;endFill=1;" edge="1" parent="1">
          <mxGeometry width="50" height="50" relative="1" as="geometry">
            <mxPoint x="560" y="280" as="sourcePoint" />
            <mxPoint x="240" y="120" as="targetPoint" />
          </mxGeometry>
        </mxCell>
        <mxCell id="bpMDO7bWZP6SxXzUYjve-12" value="" style="endArrow=oval;html=1;rounded=0;targetPerimeterSpacing=0;startArrow=oval;startFill=1;endFill=1;" edge="1" parent="1">
          <mxGeometry width="50" height="50" relative="1" as="geometry">
            <mxPoint x="240" y="280" as="sourcePoint" />
            <mxPoint x="560" y="120" as="targetPoint" />
          </mxGeometry>
        </mxCell>
        <mxCell id="bpMDO7bWZP6SxXzUYjve-13" value="&lt;font style=&quot;font-size: 17px&quot;&gt;K3,3&lt;/font&gt;" style="text;html=1;strokeColor=none;fillColor=none;align=center;verticalAlign=middle;whiteSpace=wrap;rounded=0;strokeWidth=2;" vertex="1" parent="1">
          <mxGeometry x="260" y="90" width="100" height="60" as="geometry" />
        </mxCell>
        <mxCell id="bpMDO7bWZP6SxXzUYjve-15" value="" style="endArrow=none;html=1;rounded=0;strokeWidth=3;strokeColor=#FF2403;" edge="1" parent="1">
          <mxGeometry width="50" height="50" relative="1" as="geometry">
            <mxPoint x="760" y="280" as="sourcePoint" />
            <mxPoint x="600" y="120" as="targetPoint" />
          </mxGeometry>
        </mxCell>
        <mxCell id="bpMDO7bWZP6SxXzUYjve-16" value="" style="endArrow=oval;html=1;rounded=0;startArrow=oval;startFill=1;endFill=1;strokeWidth=3;strokeColor=#FF2403;" edge="1" parent="1">
          <mxGeometry width="50" height="50" relative="1" as="geometry">
            <mxPoint x="920" y="120" as="sourcePoint" />
            <mxPoint x="760" y="280" as="targetPoint" />
          </mxGeometry>
        </mxCell>
        <mxCell id="bpMDO7bWZP6SxXzUYjve-17" value="" style="endArrow=none;html=1;rounded=0;strokeColor=#FF2403;strokeWidth=4;" edge="1" parent="1">
          <mxGeometry width="50" height="50" relative="1" as="geometry">
            <mxPoint x="600" y="280" as="sourcePoint" />
            <mxPoint x="600" y="120" as="targetPoint" />
          </mxGeometry>
        </mxCell>
        <mxCell id="bpMDO7bWZP6SxXzUYjve-18" value="" style="endArrow=none;html=1;rounded=0;strokeColor=#FF2403;strokeWidth=3;" edge="1" parent="1">
          <mxGeometry width="50" height="50" relative="1" as="geometry">
            <mxPoint x="920" y="280" as="sourcePoint" />
            <mxPoint x="920" y="120" as="targetPoint" />
          </mxGeometry>
        </mxCell>
        <mxCell id="bpMDO7bWZP6SxXzUYjve-19" value="" style="endArrow=none;html=1;rounded=0;" edge="1" parent="1">
          <mxGeometry width="50" height="50" relative="1" as="geometry">
            <mxPoint x="760" y="280" as="sourcePoint" />
            <mxPoint x="760" y="120" as="targetPoint" />
          </mxGeometry>
        </mxCell>
        <mxCell id="bpMDO7bWZP6SxXzUYjve-20" value="" style="endArrow=oval;html=1;rounded=0;endFill=1;startArrow=oval;startFill=1;strokeWidth=3;strokeColor=#FF2403;" edge="1" parent="1">
          <mxGeometry width="50" height="50" relative="1" as="geometry">
            <mxPoint x="920" y="280" as="sourcePoint" />
            <mxPoint x="760" y="120" as="targetPoint" />
          </mxGeometry>
        </mxCell>
        <mxCell id="bpMDO7bWZP6SxXzUYjve-21" value="" style="endArrow=none;html=1;rounded=0;strokeWidth=3;strokeColor=#FF2403;" edge="1" parent="1">
          <mxGeometry width="50" height="50" relative="1" as="geometry">
            <mxPoint x="600" y="280" as="sourcePoint" />
            <mxPoint x="760" y="120" as="targetPoint" />
          </mxGeometry>
        </mxCell>
        <mxCell id="bpMDO7bWZP6SxXzUYjve-22" value="" style="endArrow=oval;html=1;rounded=0;startArrow=oval;startFill=1;endFill=1;" edge="1" parent="1">
          <mxGeometry width="50" height="50" relative="1" as="geometry">
            <mxPoint x="920" y="280" as="sourcePoint" />
            <mxPoint x="600" y="120" as="targetPoint" />
          </mxGeometry>
        </mxCell>
        <mxCell id="bpMDO7bWZP6SxXzUYjve-23" value="" style="endArrow=oval;html=1;rounded=0;targetPerimeterSpacing=0;startArrow=oval;startFill=1;endFill=1;" edge="1" parent="1">
          <mxGeometry width="50" height="50" relative="1" as="geometry">
            <mxPoint x="600" y="280" as="sourcePoint" />
            <mxPoint x="920" y="120" as="targetPoint" />
          </mxGeometry>
        </mxCell>
        <mxCell id="bpMDO7bWZP6SxXzUYjve-26" value="" style="endArrow=none;html=1;rounded=0;" edge="1" parent="1">
          <mxGeometry width="50" height="50" relative="1" as="geometry">
            <mxPoint x="400" y="470" as="sourcePoint" />
            <mxPoint x="240" y="310" as="targetPoint" />
          </mxGeometry>
        </mxCell>
        <mxCell id="bpMDO7bWZP6SxXzUYjve-27" value="" style="endArrow=oval;html=1;rounded=0;startArrow=oval;startFill=1;endFill=1;strokeColor=#FF2403;strokeWidth=3;" edge="1" parent="1">
          <mxGeometry width="50" height="50" relative="1" as="geometry">
            <mxPoint x="560" y="310" as="sourcePoint" />
            <mxPoint x="400" y="470" as="targetPoint" />
          </mxGeometry>
        </mxCell>
        <mxCell id="bpMDO7bWZP6SxXzUYjve-28" value="" style="endArrow=none;html=1;rounded=0;strokeWidth=3;strokeColor=#FF2403;" edge="1" parent="1">
          <mxGeometry width="50" height="50" relative="1" as="geometry">
            <mxPoint x="240" y="470" as="sourcePoint" />
            <mxPoint x="240" y="310" as="targetPoint" />
          </mxGeometry>
        </mxCell>
        <mxCell id="bpMDO7bWZP6SxXzUYjve-29" value="" style="endArrow=none;html=1;rounded=0;" edge="1" parent="1">
          <mxGeometry width="50" height="50" relative="1" as="geometry">
            <mxPoint x="560" y="470" as="sourcePoint" />
            <mxPoint x="560" y="310" as="targetPoint" />
          </mxGeometry>
        </mxCell>
        <mxCell id="bpMDO7bWZP6SxXzUYjve-30" value="" style="endArrow=none;html=1;rounded=0;strokeWidth=3;strokeColor=#FF2403;" edge="1" parent="1">
          <mxGeometry width="50" height="50" relative="1" as="geometry">
            <mxPoint x="400" y="470" as="sourcePoint" />
            <mxPoint x="400" y="310" as="targetPoint" />
          </mxGeometry>
        </mxCell>
        <mxCell id="bpMDO7bWZP6SxXzUYjve-31" value="" style="endArrow=oval;html=1;rounded=0;endFill=1;startArrow=oval;startFill=1;strokeWidth=3;strokeColor=#FF2403;" edge="1" parent="1">
          <mxGeometry width="50" height="50" relative="1" as="geometry">
            <mxPoint x="560" y="470" as="sourcePoint" />
            <mxPoint x="400" y="310" as="targetPoint" />
          </mxGeometry>
        </mxCell>
        <mxCell id="bpMDO7bWZP6SxXzUYjve-32" value="" style="endArrow=none;html=1;rounded=0;" edge="1" parent="1">
          <mxGeometry width="50" height="50" relative="1" as="geometry">
            <mxPoint x="240" y="470" as="sourcePoint" />
            <mxPoint x="400" y="310" as="targetPoint" />
          </mxGeometry>
        </mxCell>
        <mxCell id="bpMDO7bWZP6SxXzUYjve-33" value="" style="endArrow=oval;html=1;rounded=0;startArrow=oval;startFill=1;endFill=1;strokeWidth=3;strokeColor=#FF2403;" edge="1" parent="1">
          <mxGeometry width="50" height="50" relative="1" as="geometry">
            <mxPoint x="560" y="470" as="sourcePoint" />
            <mxPoint x="240" y="310" as="targetPoint" />
          </mxGeometry>
        </mxCell>
        <mxCell id="bpMDO7bWZP6SxXzUYjve-34" value="" style="endArrow=oval;html=1;rounded=0;targetPerimeterSpacing=0;startArrow=oval;startFill=1;endFill=1;strokeWidth=3;strokeColor=#FF2403;" edge="1" parent="1">
          <mxGeometry width="50" height="50" relative="1" as="geometry">
            <mxPoint x="240" y="470" as="sourcePoint" />
            <mxPoint x="560" y="310" as="targetPoint" />
          </mxGeometry>
        </mxCell>
        <mxCell id="bpMDO7bWZP6SxXzUYjve-35" value="" style="endArrow=none;html=1;rounded=0;strokeWidth=3;strokeColor=#FF2403;" edge="1" parent="1">
          <mxGeometry width="50" height="50" relative="1" as="geometry">
            <mxPoint x="760" y="660" as="sourcePoint" />
            <mxPoint x="600" y="500" as="targetPoint" />
          </mxGeometry>
        </mxCell>
        <mxCell id="bpMDO7bWZP6SxXzUYjve-36" value="" style="endArrow=oval;html=1;rounded=0;startArrow=oval;startFill=1;endFill=1;" edge="1" parent="1">
          <mxGeometry width="50" height="50" relative="1" as="geometry">
            <mxPoint x="920" y="500" as="sourcePoint" />
            <mxPoint x="760" y="660" as="targetPoint" />
          </mxGeometry>
        </mxCell>
        <mxCell id="bpMDO7bWZP6SxXzUYjve-37" value="" style="endArrow=none;html=1;rounded=0;strokeWidth=3;strokeColor=#FF2403;" edge="1" parent="1">
          <mxGeometry width="50" height="50" relative="1" as="geometry">
            <mxPoint x="600" y="660" as="sourcePoint" />
            <mxPoint x="600" y="500" as="targetPoint" />
          </mxGeometry>
        </mxCell>
        <mxCell id="bpMDO7bWZP6SxXzUYjve-38" value="" style="endArrow=none;html=1;rounded=0;strokeWidth=3;strokeColor=#FF2403;" edge="1" parent="1">
          <mxGeometry width="50" height="50" relative="1" as="geometry">
            <mxPoint x="920" y="660" as="sourcePoint" />
            <mxPoint x="920" y="500" as="targetPoint" />
          </mxGeometry>
        </mxCell>
        <mxCell id="bpMDO7bWZP6SxXzUYjve-39" value="" style="endArrow=none;html=1;rounded=0;strokeWidth=3;strokeColor=#FF2403;" edge="1" parent="1">
          <mxGeometry width="50" height="50" relative="1" as="geometry">
            <mxPoint x="760" y="660" as="sourcePoint" />
            <mxPoint x="760" y="500" as="targetPoint" />
          </mxGeometry>
        </mxCell>
        <mxCell id="bpMDO7bWZP6SxXzUYjve-40" value="" style="endArrow=oval;html=1;rounded=0;endFill=1;startArrow=oval;startFill=1;strokeWidth=3;strokeColor=#FF2403;" edge="1" parent="1">
          <mxGeometry width="50" height="50" relative="1" as="geometry">
            <mxPoint x="920" y="660" as="sourcePoint" />
            <mxPoint x="760" y="500" as="targetPoint" />
          </mxGeometry>
        </mxCell>
        <mxCell id="bpMDO7bWZP6SxXzUYjve-41" value="" style="endArrow=none;html=1;rounded=0;" edge="1" parent="1">
          <mxGeometry width="50" height="50" relative="1" as="geometry">
            <mxPoint x="600" y="660" as="sourcePoint" />
            <mxPoint x="760" y="500" as="targetPoint" />
          </mxGeometry>
        </mxCell>
        <mxCell id="bpMDO7bWZP6SxXzUYjve-42" value="" style="endArrow=oval;html=1;rounded=0;startArrow=oval;startFill=1;endFill=1;" edge="1" parent="1">
          <mxGeometry width="50" height="50" relative="1" as="geometry">
            <mxPoint x="920" y="660" as="sourcePoint" />
            <mxPoint x="600" y="500" as="targetPoint" />
          </mxGeometry>
        </mxCell>
        <mxCell id="bpMDO7bWZP6SxXzUYjve-43" value="" style="endArrow=oval;html=1;rounded=0;targetPerimeterSpacing=0;startArrow=oval;startFill=1;endFill=1;strokeWidth=3;strokeColor=#FF2403;" edge="1" parent="1">
          <mxGeometry width="50" height="50" relative="1" as="geometry">
            <mxPoint x="600" y="660" as="sourcePoint" />
            <mxPoint x="920" y="500" as="targetPoint" />
          </mxGeometry>
        </mxCell>
        <mxCell id="bpMDO7bWZP6SxXzUYjve-53" value="" style="endArrow=none;html=1;rounded=0;strokeWidth=3;strokeColor=#FF2403;" edge="1" parent="1">
          <mxGeometry width="50" height="50" relative="1" as="geometry">
            <mxPoint x="760" y="470" as="sourcePoint" />
            <mxPoint x="600" y="310" as="targetPoint" />
          </mxGeometry>
        </mxCell>
        <mxCell id="bpMDO7bWZP6SxXzUYjve-54" value="" style="endArrow=oval;html=1;rounded=0;startArrow=oval;startFill=1;endFill=1;strokeColor=#000000;strokeWidth=1;" edge="1" parent="1">
          <mxGeometry width="50" height="50" relative="1" as="geometry">
            <mxPoint x="920" y="310" as="sourcePoint" />
            <mxPoint x="760" y="470" as="targetPoint" />
          </mxGeometry>
        </mxCell>
        <mxCell id="bpMDO7bWZP6SxXzUYjve-55" value="" style="endArrow=none;html=1;rounded=0;strokeWidth=3;strokeColor=#FF2403;" edge="1" parent="1">
          <mxGeometry width="50" height="50" relative="1" as="geometry">
            <mxPoint x="600" y="470" as="sourcePoint" />
            <mxPoint x="600" y="310" as="targetPoint" />
          </mxGeometry>
        </mxCell>
        <mxCell id="bpMDO7bWZP6SxXzUYjve-56" value="" style="endArrow=none;html=1;rounded=0;strokeWidth=3;strokeColor=#FF2403;" edge="1" parent="1">
          <mxGeometry width="50" height="50" relative="1" as="geometry">
            <mxPoint x="920" y="470" as="sourcePoint" />
            <mxPoint x="920" y="310" as="targetPoint" />
          </mxGeometry>
        </mxCell>
        <mxCell id="bpMDO7bWZP6SxXzUYjve-57" value="" style="endArrow=none;html=1;rounded=0;strokeWidth=3;strokeColor=#FF2403;" edge="1" parent="1">
          <mxGeometry width="50" height="50" relative="1" as="geometry">
            <mxPoint x="760" y="470" as="sourcePoint" />
            <mxPoint x="760" y="310" as="targetPoint" />
          </mxGeometry>
        </mxCell>
        <mxCell id="bpMDO7bWZP6SxXzUYjve-58" value="" style="endArrow=oval;html=1;rounded=0;endFill=1;startArrow=oval;startFill=1;strokeWidth=1;strokeColor=#000000;" edge="1" parent="1">
          <mxGeometry width="50" height="50" relative="1" as="geometry">
            <mxPoint x="920" y="470" as="sourcePoint" />
            <mxPoint x="760" y="310" as="targetPoint" />
          </mxGeometry>
        </mxCell>
        <mxCell id="bpMDO7bWZP6SxXzUYjve-59" value="" style="endArrow=none;html=1;rounded=0;strokeWidth=3;strokeColor=#FF2403;" edge="1" parent="1">
          <mxGeometry width="50" height="50" relative="1" as="geometry">
            <mxPoint x="600" y="470" as="sourcePoint" />
            <mxPoint x="760" y="310" as="targetPoint" />
          </mxGeometry>
        </mxCell>
        <mxCell id="bpMDO7bWZP6SxXzUYjve-60" value="" style="endArrow=oval;html=1;rounded=0;startArrow=oval;startFill=1;endFill=1;strokeWidth=3;strokeColor=#FF2403;" edge="1" parent="1">
          <mxGeometry width="50" height="50" relative="1" as="geometry">
            <mxPoint x="920" y="470" as="sourcePoint" />
            <mxPoint x="600" y="310" as="targetPoint" />
          </mxGeometry>
        </mxCell>
        <mxCell id="bpMDO7bWZP6SxXzUYjve-61" value="" style="endArrow=oval;html=1;rounded=0;targetPerimeterSpacing=0;startArrow=oval;startFill=1;endFill=1;strokeWidth=3;strokeColor=#FF2403;" edge="1" parent="1">
          <mxGeometry width="50" height="50" relative="1" as="geometry">
            <mxPoint x="600" y="470" as="sourcePoint" />
            <mxPoint x="920" y="310" as="targetPoint" />
          </mxGeometry>
        </mxCell>
        <mxCell id="bpMDO7bWZP6SxXzUYjve-62" value="" style="endArrow=none;html=1;rounded=0;strokeWidth=1;strokeColor=#000000;" edge="1" parent="1">
          <mxGeometry width="50" height="50" relative="1" as="geometry">
            <mxPoint x="400" y="660" as="sourcePoint" />
            <mxPoint x="240" y="500" as="targetPoint" />
          </mxGeometry>
        </mxCell>
        <mxCell id="bpMDO7bWZP6SxXzUYjve-63" value="" style="endArrow=oval;html=1;rounded=0;startArrow=oval;startFill=1;endFill=1;strokeWidth=3;strokeColor=#FF2403;" edge="1" parent="1">
          <mxGeometry width="50" height="50" relative="1" as="geometry">
            <mxPoint x="560" y="500" as="sourcePoint" />
            <mxPoint x="400" y="660" as="targetPoint" />
          </mxGeometry>
        </mxCell>
        <mxCell id="bpMDO7bWZP6SxXzUYjve-64" value="" style="endArrow=none;html=1;rounded=0;strokeWidth=3;strokeColor=#FF2403;" edge="1" parent="1">
          <mxGeometry width="50" height="50" relative="1" as="geometry">
            <mxPoint x="240" y="660" as="sourcePoint" />
            <mxPoint x="240" y="500" as="targetPoint" />
          </mxGeometry>
        </mxCell>
        <mxCell id="bpMDO7bWZP6SxXzUYjve-65" value="" style="endArrow=none;html=1;rounded=0;strokeWidth=3;strokeColor=#FF2403;" edge="1" parent="1">
          <mxGeometry width="50" height="50" relative="1" as="geometry">
            <mxPoint x="560" y="660" as="sourcePoint" />
            <mxPoint x="560" y="500" as="targetPoint" />
          </mxGeometry>
        </mxCell>
        <mxCell id="bpMDO7bWZP6SxXzUYjve-66" value="" style="endArrow=none;html=1;rounded=0;strokeWidth=3;strokeColor=#FF2403;" edge="1" parent="1">
          <mxGeometry width="50" height="50" relative="1" as="geometry">
            <mxPoint x="400" y="660" as="sourcePoint" />
            <mxPoint x="400" y="500" as="targetPoint" />
          </mxGeometry>
        </mxCell>
        <mxCell id="bpMDO7bWZP6SxXzUYjve-67" value="" style="endArrow=oval;html=1;rounded=0;endFill=1;startArrow=oval;startFill=1;strokeWidth=1;strokeColor=#000000;" edge="1" parent="1">
          <mxGeometry width="50" height="50" relative="1" as="geometry">
            <mxPoint x="560" y="660" as="sourcePoint" />
            <mxPoint x="400" y="500" as="targetPoint" />
          </mxGeometry>
        </mxCell>
        <mxCell id="bpMDO7bWZP6SxXzUYjve-68" value="" style="endArrow=none;html=1;rounded=0;strokeWidth=3;strokeColor=#FF2403;" edge="1" parent="1">
          <mxGeometry width="50" height="50" relative="1" as="geometry">
            <mxPoint x="240" y="660" as="sourcePoint" />
            <mxPoint x="400" y="500" as="targetPoint" />
          </mxGeometry>
        </mxCell>
        <mxCell id="bpMDO7bWZP6SxXzUYjve-69" value="" style="endArrow=oval;html=1;rounded=0;startArrow=oval;startFill=1;endFill=1;strokeWidth=3;strokeColor=#FF2403;" edge="1" parent="1">
          <mxGeometry width="50" height="50" relative="1" as="geometry">
            <mxPoint x="560" y="660" as="sourcePoint" />
            <mxPoint x="240" y="500" as="targetPoint" />
          </mxGeometry>
        </mxCell>
        <mxCell id="bpMDO7bWZP6SxXzUYjve-70" value="" style="endArrow=oval;html=1;rounded=0;targetPerimeterSpacing=0;startArrow=oval;startFill=1;endFill=1;strokeWidth=1;strokeColor=#000000;" edge="1" parent="1">
          <mxGeometry width="50" height="50" relative="1" as="geometry">
            <mxPoint x="240" y="660" as="sourcePoint" />
            <mxPoint x="560" y="500" as="targetPoint" />
          </mxGeometry>
        </mxCell>
      </root>
    </mxGraphModel>
  </diagram>
</mxfile>
